<?xml version="1.0" encoding="UTF-8" standalone="no"?>
<svg
   xmlns:dc="http://purl.org/dc/elements/1.1/"
   xmlns:cc="http://creativecommons.org/ns#"
   xmlns:rdf="http://www.w3.org/1999/02/22-rdf-syntax-ns#"
   xmlns:svg="http://www.w3.org/2000/svg"
   xmlns="http://www.w3.org/2000/svg"
   xmlns:sodipodi="http://sodipodi.sourceforge.net/DTD/sodipodi-0.dtd"
   xmlns:inkscape="http://www.inkscape.org/namespaces/inkscape"
   width="88.19445mm"
   height="193.32224mm"
   viewBox="0 0 88.194449 193.32224"
   version="1.1"
   id="svg16"
   inkscape:version="1.0.2 (e86c8708, 2021-01-15)"
   sodipodi:docname="body.svg">
  <defs
     id="defs10" />
  <sodipodi:namedview
     id="base"
     pagecolor="#ffffff"
     bordercolor="#666666"
     borderopacity="1.0"
     inkscape:pageopacity="0.0"
     inkscape:pageshadow="2"
     inkscape:zoom="0.66728654"
     inkscape:cx="34.689167"
     inkscape:cy="397.9827"
     inkscape:document-units="mm"
     inkscape:current-layer="layer2"
     inkscape:document-rotation="0"
     showgrid="false"
     fit-margin-top="0"
     fit-margin-left="0"
     fit-margin-right="0"
     fit-margin-bottom="0"
     inkscape:window-width="1252"
     inkscape:window-height="791"
     inkscape:window-x="0"
     inkscape:window-y="25"
     inkscape:window-maximized="0" />
  <metadata
     id="metadata13">
    <rdf:RDF>
      <cc:Work
         rdf:about="">
        <dc:format>image/svg+xml</dc:format>
        <dc:type
           rdf:resource="http://purl.org/dc/dcmitype/StillImage" />
        <dc:title></dc:title>
      </cc:Work>
    </rdf:RDF>
  </metadata>
  <g
     inkscape:groupmode="layer"
     id="layer2"
     inkscape:label="Layer 2"
     transform="translate(-18.768965,-14.890914)">
    <path
       style="fill:#000000;stroke-width:0.176389"
       d="m 63.307162,40.635578 c -0.485069,-0.07555 -2.359988,-0.144321 -4.166485,-0.152819 l -3.28454,-0.01545 -0.125361,-1.631597 C 55.573587,36.789859 55.040247,35.042514 54.4975,34.795224 53.803861,34.479181 53.007093,32.601235 52.630855,30.39563 c -0.165426,-0.969775 -0.153555,-1.271757 0.07113,-1.809513 0.232569,-0.556614 0.236654,-0.739134 0.02967,-1.325784 -0.136114,-0.385788 -0.245057,-1.435114 -0.251644,-2.423822 -0.01157,-1.736776 -0.0084,-1.749911 0.821653,-3.399457 0.458299,-0.910769 1.071395,-1.908348 1.362437,-2.216844 0.35771,-0.37916 1.415032,-0.949608 3.263195,-1.760561 l 2.734028,-1.199661 2.293055,0.08469 c 2.421864,0.08945 3.608591,0.391634 4.599708,1.171247 0.261223,0.205478 0.625635,0.373596 0.809805,0.373596 0.631673,0 1.999139,0.851285 2.671479,1.663068 1.384566,1.671726 1.785886,3.626742 1.357707,6.614012 -0.217231,1.515548 -0.2117,1.590765 0.150889,2.051721 0.485189,0.616818 0.48581,1.515671 0.0024,3.440049 -0.450811,1.794534 -0.725216,2.367396 -1.49593,3.122993 -0.711512,0.697557 -1.089967,1.829746 -1.369127,4.095899 l -0.206112,1.673156 -0.702762,0.124665 c -0.911616,0.161715 -4.332106,0.136987 -5.46526,-0.03951 z"
       id="head" />
    <path
       style="fill:#000000;stroke-width:0.176389"
       d="m 57.045356,99.360033 c -0.63059,-0.08411 -2.05934,-0.350589 -3.175,-0.592173 -1.996664,-0.432354 -5.436498,-1.034597 -7.121522,-1.24683 l -0.859716,-0.108283 0.109033,-3.028622 c 0.05997,-1.665741 0.179342,-4.298621 0.265275,-5.850843 0.114159,-2.062087 0.09131,-3.606113 -0.08484,-5.73264 -0.132593,-1.600729 -0.243099,-3.704167 -0.245572,-4.674306 -0.0025,-0.970138 -0.124684,-3.113264 -0.271584,-4.7625 -0.146901,-1.649236 -0.344514,-4.863924 -0.439143,-7.143751 -0.09463,-2.279826 -0.291672,-5.296076 -0.437875,-6.702778 -0.146202,-1.406702 -0.317112,-4.631978 -0.379797,-7.167279 -0.131297,-5.310208 -0.385694,-4.684695 2.036194,-5.006582 3.808228,-0.506139 6.787831,-1.63245 8.059082,-3.046388 0.429865,-0.478113 0.781572,-0.940086 0.781572,-1.026607 0,-0.218156 2.4237,-0.199466 5.468056,0.04217 2.324908,0.184529 2.814446,0.168617 5.379862,-0.174865 3.889934,-0.520824 3.703009,-0.541253 4.212902,0.460454 0.234566,0.460816 0.621279,1.019473 0.859362,1.241462 0.527392,0.491741 3.132931,1.440486 6.116239,2.227085 l 2.217053,0.584562 -0.02424,2.184731 c -0.01739,1.567207 -0.202371,3.281586 -0.654455,6.065286 -1.38276,8.514295 -1.418291,8.88415 -1.381016,14.375696 0.06423,9.463069 0.442491,15.108246 1.283919,19.161219 0.690409,3.325543 0.773485,6.444367 0.213168,8.002673 l -0.348832,0.970139 -1.396357,0.293816 c -1.090184,0.229392 -2.440606,0.297381 -6.158856,0.310079 -2.619375,0.0089 -6.350001,0.133574 -8.290278,0.276952 -3.881597,0.286833 -4.075683,0.289138 -5.73264,0.06812 z"
       id="torso" />
    <path
       style="fill:#000000;stroke-width:0.176389"
       d="m 25.904293,128.7242 c -0.521812,-0.56305 -0.553579,-1.32843 -0.174347,-4.20073 0.140399,-1.06338 0.231218,-1.95748 0.20182,-1.98688 -0.0294,-0.0294 -0.402153,0.71835 -0.828342,1.66165 -0.886778,1.96274 -1.433041,2.69963 -2.001273,2.69963 -0.989185,0 -1.249093,-1.2711 -0.613142,-2.99861 0.810167,-2.20076 2.278404,-6.76035 2.201626,-6.83713 -0.04543,-0.0454 -0.524583,0.60253 -1.064786,1.43992 -1.183126,1.83399 -1.550688,2.22221 -2.103984,2.22221 -0.510543,0 -0.636233,-0.28439 -0.636233,-1.43955 0,-1.01682 0.485614,-2.33898 1.899878,-5.17272 1.047386,-2.09863 1.935955,-3.3185 2.708084,-3.71778 0.566071,-0.29273 1.604372,-2.04761 2.231267,-3.77117 0.953243,-2.6208 2.156605,-8.687637 2.156605,-10.872672 0,-1.704074 1.422555,-6.59425 2.817818,-9.686531 1.168603,-2.589941 1.797304,-4.798637 2.033455,-7.14375 0.0635,-0.630591 0.145612,-1.344966 0.182473,-1.587501 0.03686,-0.242534 0.191763,-1.524922 0.344228,-2.849749 0.152465,-1.324829 0.474816,-3.071079 0.716336,-3.880556 0.614044,-2.05803 0.714102,-3.467021 0.36581,-5.151188 -0.385511,-1.864132 -0.389212,-6.331423 -0.0068,-8.190181 0.368091,-1.789077 0.822416,-3.056619 1.526206,-4.258028 0.592417,-1.011289 3.805207,-4.421689 4.165481,-4.421689 0.146565,0 0.202202,1.201487 0.202202,4.366546 0,3.080101 0.101873,5.353641 0.345784,7.717015 0.696074,6.74461 1.394627,22.59605 1.036946,23.530209 -0.0964,0.251769 -0.244486,1.926199 -0.32908,3.720956 -0.16081,3.411717 -0.511914,5.295135 -1.260738,6.762951 -0.197787,0.387696 -0.894475,1.941667 -1.548195,3.453267 -0.65372,1.511601 -1.601308,3.462741 -2.10575,4.335871 -1.219481,2.11076 -3.995199,7.75326 -4.256691,8.65303 -0.175064,0.60238 -0.14888,1.00059 0.165578,2.51809 0.326142,1.57389 0.350446,1.99778 0.191576,3.34142 -0.100073,0.84636 -0.200666,3.27231 -0.223538,5.39098 -0.04116,3.81227 -0.0459,3.85563 -0.458003,4.18924 -0.229029,0.1854 -0.490606,0.3371 -0.581282,0.3371 -0.4107,0 -1.009651,-0.90061 -1.217942,-1.83135 -0.123411,-0.55146 -0.283841,-0.94047 -0.356511,-0.86447 -0.07267,0.076 -0.158664,0.94363 -0.191099,1.92807 -0.06837,2.07506 -0.332992,2.58921 -1.284682,2.4961 -0.45389,-0.0444 -0.574875,-0.16316 -0.772479,-0.75821 -0.128865,-0.38806 -0.293952,-1.51887 -0.366859,-2.51293 -0.07291,-0.99405 -0.173856,-1.84866 -0.224331,-1.89914 -0.05047,-0.0505 -0.315338,0.98188 -0.588585,2.29412 -0.701288,3.36787 -1.261647,4.09293 -2.298515,2.97414 z"
       id="left hand" />
    <path
       style="fill:#000000;stroke-width:0.176389"
       d="m 97.264588,129.28586 c -0.0908,-0.23883 -0.406216,-1.60131 -0.70092,-3.02774 -0.294703,-1.42643 -0.575634,-2.63332 -0.624289,-2.68197 -0.04865,-0.0487 -0.08906,0.38117 -0.0898,0.95517 -0.0018,1.33599 -0.279374,3.12839 -0.633034,4.08634 -0.238312,0.64552 -0.347671,0.74965 -0.787267,0.74965 -0.340262,0 -0.600497,-0.13733 -0.780336,-0.4118 -0.288539,-0.44036 -0.597597,-2.40852 -0.627793,-3.99792 l -0.01843,-0.97014 -0.306613,1.23472 c -0.168639,0.6791 -0.398406,1.40341 -0.510597,1.60957 -0.291244,0.5352 -0.876451,0.63955 -1.286577,0.22943 -0.366502,-0.3665 -0.378008,-0.48723 -0.351753,-3.69108 0.0091,-1.11566 -0.05681,-2.66347 -0.14657,-3.43958 -0.08976,-0.77611 -0.259645,-2.21507 -0.377527,-3.19769 -0.187099,-1.55956 -0.176438,-1.9569 0.0839,-3.12707 0.273883,-1.23105 0.275691,-1.4285 0.02214,-2.41821 -0.453997,-1.77212 -1.273018,-3.62771 -2.859906,-6.47944 -2.724769,-4.896589 -4.698464,-9.397851 -5.240495,-11.951625 -0.642765,-3.028372 -0.818351,-4.353779 -0.818224,-6.17631 1.29e-4,-1.822454 -0.03632,-2.028371 -0.544759,-3.077992 -0.505212,-1.042947 -0.561873,-1.356768 -0.777969,-4.308691 -0.682068,-9.317214 -0.419343,-16.365853 0.893362,-23.968151 0.240582,-1.393292 0.95797,-6.67759 0.958471,-7.060133 3.53e-4,-0.266762 0.927019,0.0703 1.783419,0.648698 1.083751,0.731943 2.68311,2.54132 3.270245,3.699676 0.81662,1.611103 1.781122,4.403701 1.990709,5.763857 0.396718,2.574581 0.116291,7.774217 -0.50781,9.415726 -0.236366,0.62169 -0.240404,1.800537 -0.0077,2.23543 0.287288,0.5368 0.765791,3.317349 1.357627,7.889071 0.05338,0.412309 0.174591,0.749653 0.269367,0.749653 0.09478,0 0.134669,0.09922 0.08865,0.220486 -0.294707,0.776621 0.641958,4.238632 2.254906,8.334376 1.20689,3.06464 2.173221,6.518773 2.381023,8.510925 0.55515,5.322104 0.833259,6.819314 1.829091,9.846954 l 0.981863,2.98518 1.608394,1.76389 c 1.364754,1.4967 1.783084,2.11123 2.761674,4.05694 1.6431,3.26698 1.9873,4.26122 1.9873,5.74045 0,1.14507 -0.0319,1.249 -0.44025,1.43507 -0.57635,0.2626 -0.77636,0.0768 -2.2108,-2.05429 -0.61813,-0.91832 -1.149446,-1.64411 -1.180693,-1.61286 -0.08449,0.0845 0.934093,2.92342 1.841823,5.13343 0.47846,1.16488 0.8321,2.33249 0.88579,2.92457 0.0832,0.91743 0.0555,1.01224 -0.40112,1.37138 -0.42988,0.33815 -0.53609,0.35639 -0.85963,0.14763 -0.20303,-0.131 -0.88416,-1.23795 -1.513624,-2.45989 -0.629463,-1.22194 -1.164788,-2.2014 -1.189607,-2.17658 -0.02482,0.0248 0.03134,0.63428 0.124798,1.35436 0.275917,2.12587 0.228435,4.77873 -0.09377,5.23874 -0.393871,0.56232 -1.266315,0.53756 -1.486742,-0.0422 z"
       id="right hand" />
    <path
       style="fill:#000000;stroke-width:0.176389"
       d="m 64.45369,207.73625 c -0.492915,-0.17935 -1.22564,-0.98959 -1.415685,-1.56543 -0.15906,-0.48195 -0.12113,-0.73664 0.238661,-1.6025 0.235278,-0.5662 0.483026,-1.41227 0.550549,-1.88014 0.06752,-0.46787 0.321029,-1.37739 0.563346,-2.02117 0.301727,-0.80162 0.490174,-1.78428 0.597956,-3.11808 0.08656,-1.07118 0.275237,-2.42383 0.419285,-3.00592 0.14405,-0.58208 0.425967,-1.73302 0.626483,-2.55764 0.200517,-0.82461 0.482536,-1.93332 0.626713,-2.46378 0.379908,-1.3978 0.3738,-12.06933 -0.0085,-14.81014 -0.479023,-3.43444 -0.443414,-5.35959 0.143012,-7.73188 0.488063,-1.97437 0.507208,-2.20014 0.414844,-4.89211 -0.05326,-1.55223 -0.215586,-3.41754 -0.360728,-4.14514 -0.972931,-4.87736 -1.181883,-6.3352 -1.435705,-10.0168 -0.331219,-4.80418 -0.444039,-5.68007 -1.811078,-14.06029 -0.585546,-3.58951 -1.095276,-6.72483 -1.132734,-6.96736 -0.05981,-0.38723 -0.08219,-0.36573 -0.183699,0.17639 -0.06357,0.33955 -0.274008,1.72861 -0.467628,3.0868 -0.193619,1.3582 -0.706669,4.69195 -1.140107,7.40834 -0.787028,4.93235 -1.062699,7.13898 -1.245029,9.96597 -0.372749,5.77937 -0.518379,7.29682 -0.812544,8.46667 -0.454253,1.80649 -0.831159,4.0715 -1.067522,6.41526 -0.190205,1.88605 -0.179599,2.03466 0.269829,3.7811 0.989113,3.84359 1.079165,5.72296 0.469449,9.79723 -0.551838,3.6875 -0.412895,11.52124 0.244498,13.785 0.140882,0.48513 0.375048,1.59638 0.520368,2.46943 0.145322,0.87308 0.347296,1.86468 0.448832,2.2036 0.101535,0.33891 0.186062,1.37078 0.187839,2.29305 0.0029,1.50659 0.06539,1.82778 0.615415,3.1632 0.336704,0.81749 0.660765,1.88906 0.720136,2.38125 0.05937,0.4922 0.298373,1.38469 0.531112,1.98334 0.649944,1.6717 0.542045,2.18404 -0.582312,2.76502 -0.634117,0.32766 -2.015265,0.38666 -2.535372,0.1083 -0.188461,-0.10086 -1.195273,-0.18911 -2.237363,-0.19611 -1.042088,-0.007 -1.997241,-0.0957 -2.122561,-0.19712 -0.125321,-0.1014 -0.641259,-0.16931 -1.146528,-0.1509 -0.50527,0.0184 -1.196485,-0.0829 -1.536034,-0.22505 -0.339548,-0.14221 -0.911577,-0.30649 -1.271176,-0.36509 -0.735164,-0.11982 -1.374657,-0.78447 -1.374657,-1.42873 0,-0.22319 0.535781,-1.74045 1.190625,-3.37171 l 1.190625,-2.96593 -0.0014,-4.23333 -0.0014,-4.23334 -0.75695,-2.20478 c -0.416322,-1.21263 -1.278901,-3.43513 -1.916841,-4.93889 -1.388585,-3.27319 -2.570436,-6.76841 -2.98101,-8.81607 -0.364271,-1.81674 -0.259113,-4.64725 0.252427,-6.79443 1.104184,-4.63478 1.298358,-5.61646 1.387193,-7.01312 0.0644,-1.01247 -0.0022,-2.22853 -0.193301,-3.52778 -0.160364,-1.09049 -0.367565,-3.45115 -0.460444,-5.2459 -0.182026,-3.51741 -0.274334,-4.00518 -1.092454,-5.77274 -0.654145,-1.41328 -1.056423,-3.06754 -1.534427,-6.3099 -1.187453,-8.05466 -1.657921,-13.73493 -1.665469,-20.10834 -0.005,-4.25637 0.02774,-4.75098 0.455983,-6.87916 0.253778,-1.26119 0.549515,-2.99561 0.657195,-3.85428 0.114215,-0.9108 0.455517,-2.27029 0.819228,-3.2632 1.356383,-3.70283 1.824748,-5.064609 1.829038,-5.317943 0.01326,-0.783318 0.404462,-0.760409 5.570014,0.326193 4.085557,0.85941 5.216543,0.94377 8.541666,0.63707 1.963529,-0.1811 4.628711,-0.25852 8.200593,-0.2382 5.615974,0.0319 6.444803,-0.0458 8.960454,-0.840492 0.765223,-0.241733 1.409624,-0.413871 1.432003,-0.382529 0.02238,0.03134 0.220221,0.731674 0.439649,1.556291 0.21943,0.82462 0.638161,2.09462 0.930513,2.82222 0.862078,2.14552 1.387094,4.04488 1.560231,5.64445 0.08926,0.82462 0.370863,2.53118 0.625792,3.79236 0.455715,2.2545 0.46191,2.38203 0.368355,7.58472 -0.05234,2.91042 -0.175777,6.04573 -0.274313,6.96736 -0.09854,0.92164 -0.219802,2.20358 -0.269478,2.84878 -0.105565,1.37106 -0.810671,5.62573 -1.438651,8.68094 -0.241974,1.17723 -0.479788,2.33886 -0.528479,2.5814 -0.04869,0.24253 -0.198788,0.79816 -0.333551,1.23472 -0.824468,2.67084 -1.26893,5.69882 -1.424016,9.70139 -0.05995,1.54727 -0.264387,3.58303 -0.470976,4.68995 l -0.36504,1.95592 0.457184,1.39547 c 0.598897,1.82802 1.303907,4.41142 1.415759,5.18783 0.552843,3.83746 0.565418,5.99208 0.04735,8.11389 -0.293431,1.20178 -1.425977,4.4147 -2.704687,7.67291 -1.175555,2.99537 -2.222708,6.03923 -2.730668,7.9375 -0.324638,1.21319 -0.378619,1.90594 -0.38485,4.93889 l -0.0072,3.52778 0.853671,2.29306 c 0.469519,1.26118 1.002224,2.58755 1.18379,2.94749 0.416708,0.82608 0.415068,1.22158 -0.0085,2.05186 -0.331556,0.64991 -0.962346,1.08606 -1.570701,1.08606 -0.167876,0 -0.485253,0.12611 -0.705278,0.28022 -0.264049,0.18494 -0.682158,0.26172 -1.229874,0.22588 -0.456402,-0.0299 -1.0114,0.0468 -1.233327,0.17052 -0.221925,0.12366 -0.817238,0.22434 -1.322917,0.22374 -1.76046,-0.002 -2.866552,0.10205 -3.247166,0.30574 -0.392691,0.21017 -1.345572,0.25257 -1.817386,0.0809 z"
       id="legs" />
  </g>
</svg>
